<?xml version="1.0" encoding="utf-8"?>
<!-- Generator: Adobe Illustrator 16.0.0, SVG Export Plug-In . SVG Version: 6.00 Build 0)  -->
<!DOCTYPE svg PUBLIC "-//W3C//DTD SVG 1.1//EN" "http://www.w3.org/Graphics/SVG/1.1/DTD/svg11.dtd">
<svg version="1.1" id="Calque_1" xmlns="http://www.w3.org/2000/svg" xmlns:xlink="http://www.w3.org/1999/xlink" x="0px" y="0px"
	 width="1000px" height="600px" viewBox="0 0 1000 600" enable-background="new 0 0 1000 600" xml:space="preserve">
<path d="M798.213,303.365c0,0.611-0.217,1.179-0.646,1.701c-0.429,0.521-0.722,1.058-0.869,1.604
	c-0.151,0.555-0.388,1.042-0.688,1.474c-0.308,0.436-1.195,0.979-2.664,1.65c-1.104,0.493-1.93,0.829-2.479,1.015
	c-0.245,0-0.588-0.062-1.015-0.186c-0.309-0.123-0.61-0.215-0.92-0.275c-0.368-0.184-0.612-0.271-0.733-0.271
	c-0.187,0-0.433,0.123-0.731,0.367c-0.246,0.124-0.615,0.396-1.104,0.823c-0.554,0.312-1.504,0.462-2.849,0.462
	c-1.289,0-2.36,0.12-3.219,0.364c-0.859,0.246-1.476,0.338-1.836,0.274c-0.558-0.188-0.97-0.583-1.244-1.195
	c-0.275-0.605-0.521-1.332-0.734-2.157c-0.213-0.821-0.407-1.395-0.598-1.695c-0.246-0.367-0.459-0.903-0.646-1.608
	c-0.188-0.704-0.272-1.976-0.272-3.812c0-2.634,0.09-4.428,0.272-5.375c0.188-0.947,0.272-1.791,0.272-2.526v-2.573
	c0-0.486,0.367-1.189,1.104-2.111c0.483-0.554,0.979-1.104,1.472-1.65c0.246-0.431,0.551-0.796,0.918-1.104
	c0.184-0.119,0.396-0.271,0.646-0.461c0.118-0.12,0.239-0.334,0.362-0.643c0.189-0.308,0.435-0.552,0.736-0.736
	c0.244-0.062,0.795,0.021,1.653,0.23c0.854,0.215,1.959,0.318,3.31,0.318c0.367,0,0.887,0.188,1.562,0.555
	c1.838,0.979,3.702,1.687,5.604,2.111c1.104,0.243,2.205,1.839,3.312,4.775c0.854,2.271,1.327,3.894,1.424,4.871
	c0.091,0.979,0.169,1.7,0.229,2.16c0.062,0.459,0.097,1.023,0.097,1.698C797.998,301.865,798.088,302.507,798.213,303.365
	 M815.949,329.238c-0.123-1.625-0.223-2.562-0.275-2.81c0-0.92-0.109-1.687-0.322-2.299c-0.213-0.604-0.703-1.232-1.469-1.884
	c-0.769-0.644-1.488-1.363-2.16-2.16c-0.674-0.796-1.242-1.331-1.701-1.604c-0.459-0.275-2.311-0.781-5.559-1.521
	c-2.023-0.482-3.25-1.438-3.676-2.849c-0.189-0.612-0.064-1.349,0.357-2.206c0.244-0.549,0.734-1.378,1.479-2.48
	c0.182-0.185,0.504-0.308,0.963-0.361c0.461-0.062,0.904-0.168,1.332-0.322c0.43-0.152,0.996-0.354,1.701-0.597
	c0.705-0.244,1.145-0.557,1.334-0.921c0.672-1.354,1.521-2.312,2.562-2.896c1.043-0.582,1.812-1.333,2.306-2.252
	c0.481-0.919,0.729-2.573,0.729-4.962c0-1.776-0.187-3.215-0.553-4.318c-0.552-1.647-1.229-2.757-2.021-3.309
	c-1.594-0.673-3.148-1.379-4.688-2.115c-1.164-0.854-2.939-2.354-5.33-4.503c-1.229-1.104-2.27-1.715-3.125-1.838
	c-0.246,0-0.627,0.104-1.148,0.322c-0.52,0.215-1.021,0.316-1.518,0.316c-0.552,0-1.195-0.073-1.931-0.229
	c-0.733-0.152-1.315-0.23-1.745-0.23c-0.123,0-0.734,0.062-1.839,0.188c-0.556-0.062-1.104-0.121-1.651-0.188h-0.646
	c-0.188,0-0.432,0.062-0.73,0.188c-0.246,0.061-0.582,0.092-1.011,0.092c-0.614,0-1.688-0.429-3.224-1.286
	c-0.676-0.367-1.258-0.552-1.742-0.552c-0.312,0-1.07,0.062-2.301,0.185c-1.227,0.123-2.176,0.188-2.85,0.188
	c-1.166,0-2.16,0.026-2.986,0.093c-0.83,0.062-1.529,0.229-2.111,0.506c-0.584,0.275-1.061,0.413-1.428,0.413
	c-0.309,0-0.967-0.214-1.977-0.643c-1.014-0.435-2.066-0.582-3.172-0.459c-0.732,0.12-1.316,0.183-1.746,0.183h-1.104h-1.52h-2.529
	c-0.795,0-1.762-0.029-2.894-0.091c-1.136-0.062-1.823-0.062-2.067-0.002c-0.73,0.49-1.471,0.949-2.207,1.379
	c-0.244,0.184-0.521,0.506-0.822,0.966c-0.311,0.46-0.461,0.905-0.461,1.331c0,0.859,0.385,1.473,1.146,1.841
	c0.768,0.367,1.605,0.611,2.525,0.734s1.863,0.46,2.85,1.011c0.979,0.552,1.594,0.857,1.84,0.919
	c1.164,0.312,2.021,1.012,2.574,2.113c0.305,0.92,0.627,1.748,0.963,2.479c0.336,0.734,0.688,1.454,1.059,2.16
	c0.367,0.706,0.555,1.424,0.555,2.158c0,0.308,0.072,0.858,0.229,1.656c0.154,0.796,0.229,1.406,0.229,1.837v0.459
	c0,0.186-0.062,0.688-0.188,1.517c-0.123,0.827-0.185,1.791-0.185,2.896c0,0.921,0.062,2.11,0.185,3.586
	c0.123,1.471,0.188,2.604,0.188,3.396v1.149c0,0.521-0.03,1.009-0.097,1.469c-0.061,0.459-0.139,0.997-0.229,1.608
	c-0.094,0.607-0.139,1.104-0.139,1.471c0,0.737,0.091,1.334,0.271,1.793c0.188,0.46,0.276,0.905,0.276,1.331
	c0,0.37-0.03,0.922-0.093,1.656c0,0.606,0.104,1.271,0.32,1.976c0.213,0.705,0.32,1.396,0.32,2.067c0,0.92-0.398,1.868-1.195,2.85
	c-0.797,0.982-1.191,1.838-1.191,2.572c0,0.247,0.029,0.706,0.094,1.379c0.061,0.675,0.092,1.165,0.092,1.471
	c0,0.613-0.092,1.104-0.275,1.479c-0.119,0.364-0.215,0.89-0.27,1.562c-0.062,0.673-0.093,1.071-0.093,1.194
	c-0.245,0.979-0.56,1.748-0.921,2.298c-0.611,0.919-1.652,1.688-3.125,2.297c-0.365,0.188-0.704,0.368-1.018,0.552
	c-0.363,0.188-0.729,0.312-1.102,0.367c-0.367,0.062-0.859,0.078-1.473,0.048c-0.611-0.027-1.316-0.075-2.114-0.14
	c-0.554,0-0.948,0.062-1.192,0.186c-0.246,0.122-0.705,0.506-1.379,1.148c-0.677,0.646-1.014,1.118-1.014,1.423
	c-0.122,0.919,0.275,1.812,1.195,2.665c0.92,0.858,2.082,1.287,3.488,1.287c0.246,0,0.646-0.123,1.193-0.367
	c0.921-0.43,1.717-0.644,2.391-0.644c0.553,0,1.135-0.052,1.746-0.143c0.611-0.096,1.286-0.229,2.021-0.414
	c0.309-0.122,0.945-0.125,1.931,0c0.979,0.119,1.716,0.188,2.206,0.188c0.43,0,0.965-0.031,1.604-0.093
	c0.646-0.062,1.182-0.151,1.605-0.274c1.104,0.306,2.113,0.459,3.033,0.459c0.307,0,0.945-0.078,1.932-0.229
	c0.979-0.149,1.775-0.229,2.393-0.229c0.186,0,0.508-0.078,0.967-0.229c0.459-0.149,0.963-0.229,1.52-0.229
	c1.104,0,1.896,0.062,2.389,0.188c0.797,0,1.533-0.272,2.205-0.828c0.674-0.554,1.016-1.136,1.016-1.743
	c0-0.244-0.152-0.521-0.461-0.827l-2.479-1.477c-2.271-1.278-3.447-3.396-3.539-6.34c-0.092-2.938-0.197-5.394-0.32-7.354
	c-0.186-0.675-0.271-1.259-0.271-1.746c0-0.244,0.061-0.855,0.184-1.838c-0.061-0.435-0.092-0.874-0.092-1.333v-1.52
	c0-1.471,0.139-2.904,0.412-4.313s0.721-2.482,1.334-3.22l1.561-1.193c0.609-0.121,1.162-0.062,1.652,0.186
	c0.488,0.245,0.854,0.366,1.104,0.366c0.43,0,0.891-0.137,1.377-0.412c0.488-0.271,0.855-0.413,1.104-0.413
	c0.43,0,0.826,0.062,1.193,0.188c0.061,0,0.213-0.062,0.459-0.188h0.553c0.672,0,2.42,0.459,5.236,1.378
	c1.104,0.368,1.959,0.558,2.568,0.558c0.312,0,0.771-0.062,1.383-0.188c0.24,0,0.521,0.097,0.824,0.275l1.381,1.562
	c0.43,0.369,1.012,0.729,1.742,1.062c0.734,0.336,1.193,0.597,1.383,0.776c0.305,0.434,0.73,0.979,1.285,1.649
	c0.309,0.558,0.553,1.478,0.731,2.757c0.308,0.68,0.644,1.319,1.015,1.937c0.244,0.608,0.365,1.259,0.365,1.932
	c0,0.613,0.029,1.379,0.094,2.298c0,1.042-0.217,2.021-0.646,2.942c-0.434,0.919-0.795,1.989-1.104,3.216
	c-0.311,1.229-0.705,2.055-1.193,2.479c-0.061,0.119-0.609,0.521-1.65,1.19c-1.043,0.673-1.99,1.353-2.854,2.021
	c-0.553,0.433-1.5,1.014-2.852,1.745c-1.043,0.556-1.652,0.922-1.841,1.104c-0.31,0.246-0.581,0.459-0.825,0.646
	c-0.244,0.245-0.336,0.486-0.271,0.73c0.121,0.246,0.396,0.415,0.828,0.507c0.43,0.097,0.795,0.199,1.105,0.32
	c0.605,0.368,1.225,0.721,1.836,1.061c0.607,0.334,1.104,0.533,1.473,0.601c0.242-0.122,0.396-0.188,0.459-0.188
	c0.365-0.123,0.643-0.184,0.826-0.184c0.73,0,1.395-0.322,1.977-0.967c0.582-0.646,1.396-0.965,2.438-0.965
	c3.188,0,5.42-0.8,6.709-2.395c0.854-1.104,1.438-1.746,1.744-1.93c0.732-0.489,1.229-0.917,1.473-1.287
	c0.244-0.367,0.658-0.751,1.24-1.149c0.582-0.396,1.164-0.888,1.746-1.47c0.582-0.583,1.146-1.119,1.697-1.604
	c0.186-0.365,0.273-1.476,0.273-3.312C816.133,332.687,816.072,330.863,815.949,329.238 M714.119,337.411
	c-0.062,0.367-0.189,0.796-0.367,1.286c-0.123,0.185-0.189,0.429-0.189,0.729c0,0.246-0.123,0.489-0.362,0.735
	c-0.312,0.188-0.681,0.583-1.104,1.194c-0.43,0.607-0.703,0.943-0.828,1.012c-0.307,0.246-0.918,0.367-1.838,0.367
	c-0.551,0-1.471-0.062-2.756-0.188c-1.287-0.123-2.236-0.185-2.849-0.185c-0.679,0-1.271,0.322-1.795,0.966
	c-0.521,0.646-0.995,0.965-1.425,0.965c-0.491,0-0.967-0.146-1.426-0.46c-0.461-0.306-0.998-0.703-1.608-1.193
	c-0.485-0.24-1.257-0.363-2.298-0.363h-1.838c-0.489,0-0.979-0.275-1.473-0.827c-0.488-0.549-1.131-0.979-1.928-1.286
	c-1.355-0.489-2.115-0.979-2.309-1.471c-0.186-0.49-0.27-1.104-0.27-1.841c0-0.608,0.028-1.438,0.094-2.479
	c0.062-1.042,0.092-1.625,0.092-1.748c0-0.919,0.49-1.928,1.476-3.031c0.979-1.104,1.853-1.685,2.617-1.744
	c0.769-0.062,1.438-0.317,2.021-0.776c0.582-0.46,1.18-0.628,1.793-0.507c1.039,0.185,1.774,0.271,2.205,0.271
	c0.428,0,0.92-0.168,1.471-0.505c0.552-0.336,1.316-0.506,2.297-0.506c0.312,0,0.75-0.046,1.332-0.138
	c0.582-0.099,1.091-0.146,1.521-0.146h1.01c0.367,0,0.769,0.047,1.193,0.146c0.428,0.092,0.822,0.138,1.189,0.138
	c0.436,0.062,0.795,0.185,1.105,0.367c1.346,0.675,2.463,1.438,3.352,2.297c0.896,0.854,1.334,1.653,1.334,2.391
	c0,0.188,0.107,0.521,0.322,1.014c0.213,0.488,0.321,1.438,0.321,2.852C714.211,336.156,714.18,337.044,714.119,337.411
	 M704.561,317.101c-0.729,0.434-1.471,0.855-2.205,1.286c-0.245,0.062-0.584,0.244-1.012,0.558
	c-0.186,0.061-0.459,0.092-0.826,0.092c-0.797,0-1.502,0.092-2.11,0.271l-3.588-0.46c-0.554-0.062-0.946-0.216-1.19-0.459
	c-0.062-0.062-0.215-0.271-0.459-0.646c-0.246-0.311-0.367-0.646-0.367-1.011c0-0.489,0.188-1.041,0.553-1.654
	c0.119-0.188,0.309-0.458,0.554-0.827c0.485-0.673,0.731-1.409,0.731-2.205c0-0.73,0.152-1.438,0.459-2.113
	c0.062-0.119,0.097-0.429,0.097-0.919c0-0.361,0.062-0.675,0.188-0.922c0.123-0.241,0.488-0.672,1.103-1.284
	c0.312-0.307,0.565-0.812,0.78-1.518c0.213-0.704,0.72-1.396,1.521-2.064c0.552-0.186,1.011-0.271,1.378-0.271
	c0.61,0,1.209,0.318,1.791,0.965c0.584,0.646,0.967,1.024,1.146,1.146c0.367,0.245,0.582,0.723,0.646,1.429
	c0.062,0.705,0.229,1.271,0.508,1.7c0.271,0.43,0.596,0.919,0.965,1.47c0.188,0.246,0.273,0.919,0.273,2.021v2.76
	C705.479,315.723,705.172,316.609,704.561,317.101 M747.48,344.119c0-0.611-0.184-1.104-0.551-1.471
	c-0.612-0.556-0.979-0.857-1.104-0.92c-0.124-0.063-0.521-0.098-1.193-0.098c-1.229-0.121-2.359-0.24-3.4-0.359
	c-1.043-0.122-3.521-0.188-7.441-0.188c-0.432,0-0.77-0.149-1.013-0.459c-0.121-0.123-0.31-0.246-0.554-0.37
	c-1.287-0.549-2.02-1.468-2.205-2.755c-0.186-1.286-0.43-2.082-0.733-2.39c-0.795-0.796-1.192-1.409-1.192-1.839
	c0-0.366-0.029-0.581-0.092-0.646c-0.436-0.729-0.752-1.7-0.968-2.894c-0.213-1.194-0.552-1.979-1.013-2.35
	c-0.459-0.362-0.721-0.645-0.778-0.827c-0.062-0.429-0.151-0.768-0.272-1.013c-0.187-1.285-0.369-2.566-0.553-3.854
	c-0.246-0.92-0.629-1.73-1.148-2.438c-0.518-0.708-0.875-1.604-1.057-2.713c-0.736-0.979-1.164-1.96-1.289-2.938
	c-0.123-0.979-0.383-1.72-0.781-2.203c-0.395-0.491-0.674-1.196-0.826-2.116c-0.146-0.919-0.752-2.358-1.791-4.32
	c-0.238-0.485-0.359-1.162-0.359-2.021c0-0.31-0.1-0.732-0.275-1.285c-0.186-0.553-0.274-1.377-0.274-2.48
	c0-0.674,0.028-1.312,0.092-1.932c0.062-0.61,0.095-0.949,0.095-1.011c0-0.188-0.095-0.521-0.275-1.013
	c-0.487-1.166-0.873-2.403-1.145-3.727c-0.275-1.314-0.904-2.312-1.888-2.985c-1.285-0.919-2.063-2.127-2.347-3.63
	c-0.271-1.501-0.811-2.741-1.604-3.724c-0.248-0.367-0.462-0.734-0.646-1.104c-0.92-1.226-1.992-1.743-3.217-1.562
	c-1.104,0.123-2.193,0.246-3.264,0.369c-1.072,0.123-1.945,0.73-2.619,1.836c-0.188,0.309-0.584,0.857-1.195,1.654
	c-0.061,0.364-0.338,0.688-0.826,0.966c-0.487,0.272-0.729,0.874-0.729,1.793c0,0.123-0.076,0.438-0.23,0.964
	c-0.148,0.521-0.229,1.334-0.229,2.437c0,1.842-0.343,3.248-1.018,4.229c-0.674,0.979-1.01,2.329-1.01,4.044
	c-0.188,0.675-0.367,1.352-0.553,2.021c0,0.062-0.49,0.646-1.479,1.743c-0.359,0.435-0.643,0.873-0.818,1.334
	c-0.189,0.459-0.562,1.011-1.105,1.651c-0.551,0.646-0.901,1.64-1.057,2.986c-0.156,1.348-0.689,2.542-1.607,3.585
	c-0.553,0.607-0.889,1.066-1.01,1.379c-0.123,0.431-0.537,1.021-1.242,1.793c-0.705,0.768-1.116,1.479-1.239,2.156
	c0,0.243-0.194,0.632-0.599,1.146c-0.396,0.521-0.658,1.21-0.781,2.067c-0.122,0.854-0.383,1.517-0.777,1.976
	c-0.396,0.461-0.658,1.089-0.781,1.884c-0.123,0.798-0.31,1.439-0.551,1.937c-0.123,0.246-0.188,0.552-0.188,0.919
	c0,0.429-0.186,0.888-0.553,1.379c-0.369,0.49-0.646,1.042-0.826,1.651c-0.186,0.609-0.43,1.104-0.731,1.473
	c-0.858,0.979-1.776,2.207-2.761,3.676c-1.164,1.84-2.438,3.021-3.812,3.539c-1.381,0.521-2.191,0.905-2.438,1.148
	c-0.979,0.797-2.234,1.303-3.77,1.517c-1.531,0.217-2.664,0.508-3.398,0.874c-0.309,0.188-0.752,0.459-1.334,0.826
	c-0.582,0.37-0.934,0.77-1.057,1.191c0,0.188-0.062,0.49-0.189,0.921v0.92c0,0.552,0.031,0.946,0.1,1.191
	c0.061,0.365,0.123,0.92,0.184,1.651c0.189,0.553,0.506,0.919,0.965,1.104c0.461,0.188,0.75,0.365,0.875,0.554
	c0.062,0.122,0.355,0.229,0.871,0.317c0.521,0.094,1.025,0.229,1.521,0.414h0.364c0.187,0,0.521-0.047,1.015-0.14
	c0.485-0.096,1.258-0.141,2.299-0.141c0.551,0,1.133,0.092,1.746,0.273c0.606,0.186,1.225,0.214,1.838,0.095
	c0.486-0.123,1.103-0.188,1.838-0.188c0.488,0.062,0.996,0.121,1.517,0.188c0.521,0.062,1.118,0.091,1.795,0.091
	c0.242,0,0.646-0.029,1.192-0.091c0.55,0,1.47,0.104,2.757,0.319c1.286,0.211,2.081,0.315,2.396,0.315
	c0.551,0,1.301-0.149,2.25-0.459c0.946-0.309,1.821-0.396,2.621-0.271c0.428,0.062,1.01,0.095,1.739,0.095
	c0.802,0,1.578-0.188,2.351-0.556c0.766-0.366,1.455-0.582,2.063-0.646l4.776-0.459c0.672-0.485,1.256-0.731,1.748-0.731
	c0.244,0,0.672,0.188,1.287,0.553c0.604,0.366,1.254,0.553,1.93,0.553c0.488,0,1.162-0.026,2.021-0.092
	c0.486,0,0.767,0.062,0.822,0.186c0.123,0.062,0.433,0.311,0.92,0.735c0.188,0.062,0.489,0.091,0.922,0.091
	c0.486,0.062,1.211-0.076,2.156-0.41c0.948-0.34,1.979-0.51,3.08-0.51c0.856,0,1.651-0.149,2.394-0.46
	c0.241,0,0.581-0.121,1.012-0.366c0.429-0.242,0.979-0.365,1.654-0.365c1.717,0,3.094,0.245,4.137,0.731
	c0.365,0.188,0.797,0.273,1.285,0.273h0.825c0.363-0.062,0.769-0.122,1.193-0.188c0.243-0.062,0.769,0.02,1.562,0.229
	c0.795,0.216,1.5,0.262,2.112,0.139c0.429-0.12,0.916-0.186,1.472-0.186c0.364,0.062,0.766,0.124,1.188,0.188
	c0.431,0.062,0.948,0.091,1.562,0.091c0.674,0,1.239-0.024,1.698-0.091c0.459-0.062,1.021-0.094,1.697-0.094
	c0.61,0,1.137,0.049,1.562,0.14c0.43,0.095,0.797,0.229,1.104,0.413c0.555,0.188,1.137,0.097,1.745-0.272
	c0.92-0.187,1.791-0.365,2.621-0.553c0.826-0.187,1.576-0.889,2.252-2.112C747.297,345.5,747.48,344.856,747.48,344.119
	 M658.029,332.764c0.089-0.694,0.222-1.467,0.396-2.3c0.174-0.831,0.265-2.167,0.265-4.005v-2.888c0-1.399-0.222-2.538-0.653-3.414
	c-0.439-0.874-0.744-2.318-0.918-4.333c-0.182-2.012-0.525-3.194-1.057-3.544c-0.786-0.612-1.598-1.052-2.43-1.313
	c-0.832-0.263-1.467-0.263-1.902,0c-0.607,0.27-1.051,0.812-1.311,1.646c-0.267,0.833-0.48,1.686-0.656,2.56
	c-0.701,1.146-1.399,2.277-2.1,3.414c-0.355,0.439-0.746,1.62-1.189,3.545c-0.965,3.938-1.619,6.17-1.969,6.696
	c-0.615,1.312-1.187,2.518-1.707,3.608c-0.521,1.098-0.877,1.729-1.051,1.898c-0.613,0.354-1.186,0.656-1.707,0.919
	c-0.439,0.27-0.963,0.702-1.576,1.313c-0.611,0.606-2.146,1.095-4.594,1.438c-2.451,0.354-3.939,0.701-4.466,1.058
	c-0.438,0.176-0.983,0.189-1.644,0.062s-1.426-0.327-2.299-0.591c-0.789,0-1.883,0.197-3.281,0.591
	c-1.396,0.396-2.496,0.592-3.28,0.592c-0.7,0.09-1.382,0.135-2.034,0.135h-1.902c-2.188,0-3.979-0.479-5.383-1.441
	c-1.838-1.229-3.197-3.457-4.07-6.696c-0.09-0.349-0.133-0.788-0.133-1.312c0-0.788,0.086-1.618,0.264-2.494
	c-0.52-1.75-1.008-3.5-1.438-5.252c-0.439-1.75-0.656-3.896-0.656-6.438c0-0.438,0.021-1.182,0.063-2.229
	c0.046-1.053,0.104-2.06,0.192-3.021c-0.088-1.659-0.133-3.323-0.133-4.987v-4.984c0-2.977,0.133-5.206,0.396-6.696
	c0.088-0.785,0.045-1.553-0.134-2.297c-0.176-0.743-0.264-1.51-0.264-2.298c0-1.139,0.152-2.518,0.461-4.136
	c0.307-1.618,0.459-3.264,0.459-4.926c0-1.055-0.131-2.188-0.396-3.413c-0.269-1.229-0.396-2.23-0.396-3.021
	c0-1.575,0.109-2.866,0.328-3.873c0.219-1.005,0.414-1.812,0.592-2.429c0.174-0.611,0.939-1.159,2.297-1.645
	c1.355-0.479,2.865-0.981,4.529-1.513c1.662-0.521,3.063-0.788,4.201-0.788c0.963,0,1.971,0.181,3.02,0.526
	c1.056,0.35,2.02,0.521,2.895,0.521c0.963,0,1.881-0.521,2.758-1.575c0.436-0.522,1.049-1.354,1.838-2.491
	c0.35-0.438,0.522-0.966,0.522-1.576c0-0.353-0.134-0.831-0.396-1.442c-0.963-0.873-1.598-1.812-1.9-2.821
	c-0.311-1.006-0.854-1.659-1.645-1.972c-0.787-0.307-2.254-0.547-4.396-0.724c-2.146-0.174-3.61-0.352-4.397-0.522
	c-0.787-0.177-1.355-0.265-1.707-0.265c-0.701,0-1.752,0.131-3.148,0.396c-1.396,0.266-2.361,0.396-2.891,0.396
	c-0.262,0-0.701-0.217-1.312-0.656c-1.229-0.874-2.229-1.225-3.021-1.05c-1.838,0.354-3.414,0.525-4.728,0.525h-1.974
	c-0.352,0-0.875,0.045-1.573,0.131c-1.571,0.438-2.847,0.744-3.81,0.919c-0.965,0.177-2.016,0.177-3.149,0
	c-1.571-0.175-2.58-0.266-3.021-0.266c-0.963,0-2.146,0.046-3.545,0.135c-1.051,0-2.035-0.24-2.953-0.726
	c-0.92-0.479-1.688-0.725-2.299-0.725s-1.621,0.416-3.021,1.247c-1.396,0.833-2.625,1.247-3.677,1.247
	c-2.271,0-4.021,0.351-5.252,1.051c-0.612,0.265-1.096,0.701-1.438,1.312c-0.354,0.609-0.438,1.397-0.27,2.359
	c0,1.229,0.197,2.123,0.593,2.691c0.396,0.567,1.069,0.981,2.034,1.248c0.961,0.262,2.273,0.652,3.938,1.181
	c1.052,0.266,2.058,0.396,3.021,0.396c2.8,0.264,4.812,0.965,6.039,2.102c1.229,1.141,1.97,1.752,2.229,1.838
	c0.789,0.269,1.291,1.098,1.512,2.495c0.219,1.401,0.896,2.539,2.035,3.413c0.35,0.263,0.592,0.833,0.725,1.707
	c0.131,0.876,0.195,2.104,0.195,3.676v4.464c0,1.401-0.195,3.021-0.592,4.858s-0.854,3.722-1.384,5.646
	c-0.176,0.611-0.352,1.471-0.521,2.562c-0.18,1.096-0.266,2.123-0.266,3.085c0,1.839,0.278,3.238,0.854,4.201
	c0.567,0.965,0.938,1.884,1.115,2.758c0.174,0.876,0.262,1.664,0.262,2.361c0,0.179-0.021,0.638-0.062,1.381
	c-0.053,0.739-0.11,1.729-0.196,2.948c0,0.611,0.086,1.488,0.262,2.63v2.358c0,2.104-0.197,4.229-0.592,6.367
	c-0.396,2.146-0.547,3.349-0.459,3.611c0,0.176-0.021,0.741-0.064,1.706c-0.045,0.965-0.147,1.707-0.322,2.229
	c-0.182,0.439-0.555,1.188-1.116,2.232c-0.57,1.051-0.854,1.838-0.854,2.358c-0.091,0.876-1.142,1.752-3.146,2.626
	c-2.02,0.876-3.371,1.662-4.07,2.362c-0.262,0.177-0.896,0.284-1.901,0.327c-1.008,0.046-1.812,0.197-2.431,0.46
	c-0.617,0.263-1.312,0.637-2.103,1.116c-0.786,0.479-1.271,0.854-1.442,1.114c-0.178,0.352-0.264,0.831-0.264,1.439
	c0,0.788,0.264,1.4,0.788,1.839c0.521,0.438,1.005,0.655,1.438,0.655c0.27,0,0.742-0.044,1.443-0.132
	c0.789,0,1.643,0.193,2.562,0.592c0.918,0.396,1.944,0.593,3.084,0.593c0.61,0,1.729-0.326,3.354-0.98
	c1.618-0.656,3.26-0.985,4.924-0.985h1.051c0.438,0,1.07,0.065,1.904,0.197c0.83,0.132,2.34,0.309,4.526,0.521
	c2.188,0.226,3.722,0.595,4.599,1.115c0.521,0.268,0.918,0.396,1.182,0.396c0.353,0,0.873-0.178,1.574-0.522
	c0.699-0.353,1.271-0.522,1.707-0.522c0.35-0.087,0.787-0.134,1.312-0.134c0.438,0,1.185,0.091,2.229,0.267
	c1.049,0.18,1.969,0.266,2.756,0.266c0.789,0,1.619-0.043,2.494-0.131s1.883-0.311,3.021-0.658c2.103-0.262,3.765-0.396,4.985-0.396
	c0.961,0,3.193,0.438,6.695,1.312c1.225,0.267,2.58,0.354,4.069,0.267h6.17c1.228,0,2.188,0.104,2.89,0.325
	c0.698,0.221,1.465,0.479,2.299,0.787c0.83,0.309,1.945,0.459,3.353,0.459c1.138,0,2.444-0.219,3.938-0.653
	c1.487-0.438,2.844-0.652,4.069-0.652c1.481,0,2.955-0.328,4.396-0.985c1.443-0.656,2.822-1.422,4.142-2.298
	c0.437-0.263,0.677-0.81,0.722-1.642c0.045-0.83,0.104-1.885,0.196-3.15c0.089-1.27,0.233-2.317,0.462-3.15
	c0.217-0.831,0.232-1.554,0.061-2.167C658.248,334.732,658.029,333.55,658.029,332.764 M563.498,284.106
	c0-1.104-0.436-1.979-1.287-2.62c-0.856-0.646-1.547-1.01-2.065-1.104c-0.521-0.092-1.025-0.139-1.519-0.139
	c-0.797,0-1.688,0.154-2.666,0.459c-0.979,0.311-1.53,0.46-1.653,0.46c-0.369,0-1.104-0.121-2.205-0.367
	c-1.896-0.429-2.909-0.645-3.03-0.645c-0.062,0-0.8,0.185-2.209,0.552c-1.403,0.37-2.446,0.552-3.12,0.552
	c-0.854,0-2.084-0.146-3.68-0.459c-1.597-0.306-2.515-0.46-2.758-0.46l-3.584,0.556c-0.31,0-0.78,0.048-1.427,0.14
	c-0.646,0.093-1.211,0.169-1.698,0.229c-0.431,0-0.951-0.117-1.562-0.363c-0.611-0.241-0.949-0.364-1.016-0.364
	c-0.245-0.062-0.704,0.123-1.379,0.552c-0.675,0.428-1.162,0.812-1.47,1.146c-0.312,0.338-0.459,1.06-0.459,2.155
	c0,0.802,0.138,1.429,0.412,1.89c0.271,0.459,0.646,0.753,1.104,0.875s0.996,0.291,1.606,0.505c0.608,0.214,1.351,0.505,2.207,0.87
	c0.483,0.122,1.438,0.187,2.851,0.187c0.55,0.062,1.256,0.433,2.11,1.104c0.854,0.676,1.472,1.258,1.838,1.743
	c0.188,0.434,0.277,1.229,0.277,2.393c0.239,0.554,0.475,1.104,0.688,1.653c0.215,0.555,0.321,1.228,0.321,2.021
	c0,0.062,0.045,0.752,0.14,2.07c0.093,1.311,0.142,2.372,0.142,3.167c0,0.245-0.028,0.609-0.095,1.104l-0.92,4.229
	c0,0.184,0.091,0.655,0.274,1.426c0.185,0.769,0.383,1.409,0.599,1.931c0.214,0.521,0.336,1.07,0.364,1.652
	c0.031,0.583,0.049,1.18,0.049,1.791c0,0.675-0.062,1.364-0.186,2.067c-0.124,0.704-0.214,1.306-0.273,1.791
	c0.188,1.474,0.365,2.771,0.553,3.901c0.187,1.14,0.273,2.068,0.273,2.809c0,2.326-0.142,3.949-0.416,4.87
	c-0.271,0.92-0.655,1.934-1.146,3.028c-0.123,0.312-0.312,1.073-0.557,2.3c-0.551,2.693-0.889,4.229-1.012,4.6
	c-0.429,1.165-0.826,1.839-1.191,2.021c-0.922,0-1.772,0.217-2.57,0.646c-0.799,0.428-1.426,0.688-1.889,0.773
	c-0.459,0.095-0.967,0.144-1.518,0.144c-0.552,0-0.854,0.061-0.918,0.184c-0.613,0.796-0.92,1.596-0.92,2.393
	c0,1.044,0.307,1.812,0.92,2.302c0.062,0.188,0.305,0.242,0.733,0.185c0.185,0,0.58-0.062,1.189-0.185
	c0.311,0,1.041,0.188,2.205,0.554c1.164,0.365,2.176,0.55,3.033,0.55c0.795,0,1.625-0.093,2.479-0.271
	c0.244,0,0.557,0.028,0.922,0.096c0.922,0,1.744-0.246,2.479-0.734c0.305-0.186,0.643-0.396,1.012-0.646
	c1.041,0,1.961,0.188,2.756,0.553c1.287,0.612,2.182,0.921,2.666,0.921c1.041,0,1.936-0.153,2.666-0.459
	c1.164-0.491,2.021-0.677,2.572-0.554c0.733,0.245,1.563,0.365,2.481,0.365h1.379c1.164,0,1.896-0.062,2.205-0.188
	c0.483-0.184,0.896-0.611,1.235-1.286c0.338-0.675,0.511-1.312,0.511-1.932c0-0.733-0.312-1.347-0.923-1.838
	c-0.187-0.121-0.487-0.274-0.92-0.46c-0.308,0.122-0.521,0.216-0.646,0.271c-0.797,0.367-1.348,0.521-1.65,0.46
	c-0.61,0-1.313-0.396-2.108-1.19c-0.494-0.489-0.925-1.087-1.289-1.791c-0.367-0.704-0.733-1.378-1.104-2.021
	c-0.368-0.644-0.582-1.146-0.644-1.519c-0.125-0.367-0.188-1.362-0.188-2.987c0-1.622-0.062-2.71-0.188-3.262
	c-0.123-0.555-0.187-1.316-0.187-2.297c0-1.287,0.095-2.483,0.273-3.587c0.062-0.8,0.029-1.521-0.094-2.158
	c-0.123-0.646-0.187-1.024-0.187-1.147v-1.107c0-1.163,0.045-2.188,0.139-3.077c0.093-0.893,0.263-1.701,0.509-2.438
	c0-0.431,0.229-1.227,0.688-2.392c0.461-1.164,0.688-2.479,0.688-3.952c0-1.591-0.076-2.861-0.229-3.812
	c-0.149-0.949-0.317-1.854-0.507-2.714c0-0.797,0.106-1.913,0.319-3.354c0.213-1.44,0.321-2.497,0.321-3.172
	c0-0.427-0.03-0.948-0.096-1.562c0-0.486,0.074-1.015,0.229-1.562c0.149-0.55,0.411-1.228,0.778-2.021
	c0.551-0.432,1.066-0.824,1.562-1.192c0.489-0.367,0.949-0.646,1.379-0.827c0.434-0.185,0.826-0.367,1.195-0.552
	c1.043-0.488,1.838-0.771,2.391-0.826c0.801,0,1.5-0.337,2.113-1.015c0.366-0.553,0.77-1.134,1.194-1.743
	C563.405,284.75,563.498,284.478,563.498,284.106 M524.516,343.752c-0.431-0.244-1.013-0.58-1.746-1.011
	c-0.31-0.367-0.845-0.673-1.604-0.919c-0.771-0.244-1.457-0.521-2.067-0.827c-0.608-0.307-1.164-0.766-1.649-1.379
	c-0.979-1.042-1.821-2.896-2.524-5.562c-0.707-2.664-1.062-5.063-1.062-7.217c0-1.348,0.121-2.298,0.366-2.85
	c0.062-0.123,0.311-0.613,0.733-1.476c0.188-0.362,0.272-0.797,0.272-1.281c0-0.857-0.026-1.897-0.093-3.124
	c-0.062-1.229-0.148-1.99-0.271-2.302c-0.123-0.363-0.188-0.73-0.188-1.104c0-0.611,0.021-1.349,0.045-2.206
	c0.03-0.854,0.05-1.838,0.05-2.94c0-2.443-0.026-4.104-0.095-4.961c-0.062-0.854-0.093-2.391-0.093-4.597
	c0-0.486-0.03-1.312-0.092-2.479c0-0.733,0.121-1.353,0.367-1.841c0.485-0.674,0.821-1.19,1.01-1.562
	c0-0.062,0.215-0.609,0.646-1.651c0.188-0.49,0.704-1.166,1.562-2.021c1.285-1.229,2.021-1.959,2.207-2.206
	c0.606-0.734,1.207-1.454,1.791-2.16c0.582-0.703,0.873-1.3,0.873-1.793c0-0.183-0.062-0.521-0.188-1.009
	c-0.31-0.674-0.769-1.317-1.379-1.934c-0.854-0.797-1.869-1.194-3.03-1.194c-0.979,0-1.774,0.094-2.393,0.273
	c-0.611,0.188-1.071,0.273-1.379,0.273c-0.062,0-0.444-0.045-1.146-0.139c-0.705-0.092-1.305-0.105-1.794-0.046
	c-0.361,0.062-0.797,0.092-1.282,0.092c-0.312,0-0.704-0.046-1.194-0.141c-0.489-0.093-0.95-0.073-1.377,0.049
	c-1.104,0.31-1.938,0.487-2.481,0.554c-0.553,0.062-1.312,0.091-2.299,0.091c-0.367,0-1.089-0.045-2.158-0.14
	c-1.074-0.092-1.702-0.14-1.884-0.14c-0.185,0-0.874,0.122-2.066,0.365c-1.191,0.246-2.038,0.46-2.522,0.646
	c-0.491,0.187-0.919,0.46-1.287,0.824c-0.369,0.368-0.521,0.678-0.459,0.921c0.121,0.311,0.334,0.582,0.644,0.825
	c0.31,0.188,0.856,0.521,1.654,1.014c0.308,0.31,0.627,0.611,0.964,0.919c0.337,0.31,0.689,0.553,1.062,0.731
	c0.307,0.123,0.7,0.435,1.191,0.92c1.104,1.165,2.205,2.298,3.312,3.398c0.731,0.797,1.209,1.519,1.426,2.159
	c0.213,0.646,0.319,1.455,0.319,2.438c0,0.062-0.05,0.537-0.144,1.428c-0.093,0.891-0.139,1.577-0.139,2.062
	c0,0.434,0.062,0.952,0.187,1.562c0.122,0.612,0.188,1.015,0.188,1.19l-0.553,3.4c0,1.53-0.245,2.729-0.735,3.583
	c-0.674,1.166-1.9,1.867-3.675,2.109c-0.367,0.062-1.229,0.097-2.573,0.097h-4.688c-0.555,0-1.284-0.121-2.205-0.366
	c-0.92-0.244-1.406-0.367-1.474-0.367c-0.673,0-1.285,0.247-1.839,0.733c-0.246,0.062-0.582,0.093-1.009,0.093
	c-0.675,0-1.364-0.186-2.07-0.555c-0.705-0.364-1.408-0.599-2.108-0.688c-0.706-0.091-1.271-0.14-1.699-0.14
	c-0.431,0-0.921-0.149-1.476-0.46c-0.553-0.31-0.945-0.581-1.188-0.826c-0.433-0.432-0.857-1.191-1.287-2.298
	c-0.435-1.104-0.66-2.057-0.688-2.854c-0.028-0.796-0.045-1.562-0.045-2.298c0-0.487-0.029-0.854-0.094-1.104
	c-0.311-1.04-0.507-1.822-0.602-2.346c-0.092-0.521-0.139-1.183-0.139-1.979c0-0.55,0.149-1.208,0.459-1.977
	c0.309-0.769,0.533-1.484,0.688-2.159c0.15-0.674,0.354-1.455,0.597-2.344c0.246-0.891,0.49-1.455,0.736-1.7
	c0.243-0.246,0.598-0.414,1.058-0.507c0.459-0.094,0.965-0.141,1.521-0.141c0.429,0.244,0.854,0.479,1.283,0.688
	c0.432,0.217,0.768,0.318,1.015,0.318c1.042,0,2.204-0.73,3.493-2.202c0.242-0.245,0.672-0.705,1.283-1.38
	c0.608-0.675,0.825-1.315,0.646-1.934c-0.247-0.731-0.677-1.285-1.289-1.653c-0.854-0.551-2.231-0.917-4.135-1.104
	c-0.553,0-1.776,0.612-3.679,1.838c-0.799,0.489-1.562,0.733-2.299,0.733c-0.555,0-1.24-0.075-2.064-0.229
	c-0.827-0.151-1.791-0.383-2.896-0.688h-1.146h-1.52c-0.854,0-1.699-0.062-2.523-0.186c-0.828-0.123-1.562-0.217-2.207-0.274
	c-0.646-0.062-1.484-0.242-2.524-0.555c-3.493-1.04-5.821-1.562-6.983-1.562c-0.979,0-2.021,0.215-3.125,0.643
	c-0.432,0.188-1.104,0.491-2.021,0.919c-0.429,0.188-0.812,0.585-1.147,1.195c-0.336,0.612-0.414,1.136-0.229,1.562
	c0.491,1.229,1.227,1.962,2.206,2.207h1.472c0.61,0,1.182,0.122,1.699,0.366c0.521,0.246,1.04,0.601,1.562,1.06
	c0.521,0.461,1.022,0.778,1.519,0.968c0.489,0.186,1.058,0.396,1.7,0.644c0.646,0.246,1.104,0.566,1.38,0.967
	c0.271,0.396,0.521,0.904,0.733,1.52c0.211,0.612,0.533,1.229,0.963,1.839c0.433,0.612,0.781,1.314,1.061,2.112
	c0.271,0.796,0.413,1.715,0.413,2.757c0,0.554-0.077,1.287-0.229,2.206c-0.149,0.917-0.229,1.653-0.229,2.205
	c0,0.797,0.184,1.84,0.553,3.123c0.797,2.758,1.193,4.534,1.193,5.332c0,1.104-0.367,2.975-1.104,5.604
	c-0.246,0.854-0.366,2.234-0.366,4.138l0.825,5.977c0,0.311,0.027,0.706,0.093,1.191c0.062,0.488,0.095,0.892,0.095,1.19
	c0,0.676-0.095,1.382-0.273,2.115c-0.188,0.73-0.274,1.408-0.274,2.021c0,1.719-0.245,3.062-0.731,4.047
	c-0.797,0.854-1.533,1.652-2.205,2.392c-0.678,0.731-1.166,1.228-1.473,1.471c-0.611,0.492-1.166,0.798-1.652,0.919
	c-1.041-0.12-1.937-0.243-2.666-0.365c-0.733-0.123-1.529-0.187-2.394-0.187c-1.284,0-2.39,0.272-3.31,0.827
	c-0.311,0.244-0.657,0.537-1.059,0.874c-0.396,0.337-0.599,0.899-0.599,1.697c0,1.286,0.366,2.234,1.104,2.852
	c0.365,0.31,0.674,0.583,0.918,0.826c0.309,0.31,0.854,0.538,1.654,0.688c0.795,0.152,1.989,0.478,3.586,0.966
	c1.039,0.309,1.959,0.432,2.758,0.368c0.428-0.188,0.887-0.368,1.377-0.553c0.186-0.062,0.43-0.094,0.732-0.094
	c0.676,0.185,1.381,0.396,2.113,0.646c0.062,0,0.439-0.151,1.146-0.459c0.704-0.309,1.333-0.459,1.887-0.459
	c0.979,0,1.988-0.151,3.03-0.462c1.839-0.553,2.907-0.799,3.218-0.732c0.186,0,0.489,0.151,0.92,0.459
	c0.795,0.555,1.473,0.826,2.021,0.826c1.407,0,2.604-0.229,3.584-0.688c0.979-0.461,2.021-1.024,3.125-1.697h1.287
	c0.61-0.123,0.92-0.489,0.92-1.104c0-0.673-0.216-1.066-0.646-1.189h-0.919h-0.918c-0.312-0.062-0.646-0.338-1.015-0.826
	c-0.368-0.49-0.719-0.967-1.058-1.427c-0.338-0.461-0.629-1.331-0.873-2.62c-0.312-2.325-0.521-4.147-0.646-5.469
	c-0.123-1.314-0.186-3.171-0.186-5.562c0-0.731-0.105-1.452-0.321-2.158c-0.214-0.705-0.291-1.182-0.229-1.426
	c0-0.186,0.092-0.688,0.274-1.519c0.185-0.826,0.308-1.454,0.369-1.889c0-1.104,0.045-1.914,0.137-2.438
	c0.093-0.521,0.32-0.965,0.688-1.33l1.933-1.194c0.673-0.608,1.379-0.92,2.11-0.92c0.246,0,0.631,0.029,1.146,0.094
	c0.521,0.062,0.902,0.095,1.148,0.095c0.607,0,1.284-0.104,2.021-0.321c0.734-0.213,1.316-0.41,1.745-0.598
	c0.188,0,0.737-0.029,1.656-0.096c0.731,0,1.405,0.096,2.021,0.275c0.612,0.188,1.186,0.488,1.7,0.92
	c0.521,0.43,0.995,0.608,1.425,0.55c0.979-0.243,2.054-0.505,3.22-0.775c1.164-0.273,2.205-0.414,3.125-0.414
	c1.041,0,1.896,0.216,2.572,0.645c1.229,0.798,1.959,2.637,2.205,5.519c0.243,2.884,0.396,4.352,0.459,4.409
	c0,0.062,0.062,0.218,0.188,0.461v0.555c0,0.854-0.276,2.354-0.828,4.503c-0.555,2.146-0.827,3.521-0.827,4.137
	c0,0.732-0.028,1.532-0.093,2.392c-0.062,0.856-0.168,1.521-0.319,1.979c-0.152,0.459-0.507,0.967-1.059,1.519
	c-0.248,0.245-0.556,0.556-0.922,0.919c-0.311,0.611-1.377,1.315-3.218,2.111c-0.92,0.433-1.529,0.892-1.838,1.381
	c-0.31,0.489-0.461,0.826-0.461,1.012c0,0.062,0.243,0.274,0.736,0.646c1.102,0.31,2.23,0.583,3.396,0.825
	c0.487,0.247,1.014,0.486,1.562,0.733c0.552,0.243,1.01,0.366,1.378,0.366c0.855,0,2.082-0.216,3.677-0.646
	c0.797-0.186,1.651-0.432,2.571-0.733c0.188-0.062,0.949,0.048,2.3,0.321c1.353,0.271,2.084,0.412,2.205,0.412
	c0.733-0.123,1.47-0.264,2.203-0.414c0.733-0.151,1.625-0.229,2.668-0.229c0.306,0,0.702,0.062,1.192,0.188
	c0.485,0.124,0.854,0.149,1.104,0.094c0.428-0.062,0.855-0.152,1.286-0.275c0.306-0.061,0.673-0.092,1.104-0.092
	c0.188,0,0.554,0.062,1.104,0.188c0.554,0.125,0.921,0.119,1.104-0.003c0.484-0.243,0.935-0.601,1.326-1.061
	c0.396-0.46,0.604-1.021,0.604-1.699C525.711,344.946,525.311,344.242,524.516,343.752 M431.507,343.387
	c-0.552,0.062-1.088,0.143-1.609,0.229c-0.521,0.092-1.649,0.476-3.396,1.146s-2.864,1.015-3.354,1.015
	c-0.485-0.062-1.021-0.152-1.604-0.275s-1.767-0.185-3.539-0.185c-1.595,0-2.804-0.199-3.63-0.604
	c-0.828-0.396-1.61-0.81-2.348-1.239c-1.043-0.429-2.021-1.011-2.938-1.74c-0.613-0.488-1.134-1.04-1.563-1.653
	c-0.365,0-0.607-0.062-0.729-0.188c-0.247-0.238-0.432-0.605-0.553-1.103c-0.49-1.897-1.072-3.646-1.746-5.24
	c-0.188-0.429-0.463-1.011-0.829-1.744c-0.366-0.729-0.55-1.501-0.55-2.299c0-0.429,0.026-1.104,0.094-2.021
	c0-0.919-0.154-1.898-0.46-2.94c-0.312-1.042-0.49-1.807-0.556-2.297c-0.062-0.491-0.095-1.135-0.095-1.931
	c0-0.857,0.093-1.812,0.275-2.854s0.396-2.052,0.646-3.028c0.062-0.245,0.096-0.646,0.096-1.192c0-0.55-0.096-1.716-0.276-3.492
	c-0.187-1.775-0.274-3.217-0.274-4.318c0-1.527,0.172-3.049,0.508-4.551c0.338-1.5,0.901-2.857,1.697-4.089
	c0.611-0.919,1.135-1.518,1.562-1.791c0.429-0.271,0.854-0.874,1.285-1.793c0.731-0.244,1.228-0.55,1.474-0.919
	c0.485-0.735,1.104-1.455,1.836-2.16c0.733-0.704,1.379-1.116,1.933-1.236c0.556-0.123,1.071-0.219,1.562-0.273
	c2.082,0,4.104-0.244,6.062-0.735c2.818-0.673,4.019-1.684,3.586-3.033c-0.367-1.161-0.646-1.929-0.824-2.299
	c-0.612-1.403-1.654-2.264-3.125-2.568c-0.367-0.062-0.903-0.241-1.606-0.556c-0.706-0.306-1.426-0.459-2.161-0.459
	c-0.244,0-0.796,0.062-1.648,0.188h-1.334h-2.254c-0.854,0-1.531,0.216-2.021,0.642c-0.246,0.246-0.488,0.521-0.734,0.827
	c-0.554,0.613-1.285,1.042-2.207,1.288c-0.918,0.247-1.771,0.889-2.568,1.929c-0.491,0.558-1.26,1.017-2.297,1.378
	c-0.612,0.188-1.72,0.561-3.312,1.104c-1.472,1.042-2.297,1.651-2.479,1.838c-1.104,0.854-1.992,1.656-2.666,2.39
	c-0.431,0.613-0.733,1.354-0.918,2.205c-0.188,0.858-0.555,1.688-1.104,2.483c-0.245,0.366-0.521,1.065-0.827,2.108
	c-0.308,1.041-0.797,1.776-1.47,2.203c-0.554,0.682-1.06,1.319-1.52,1.936c-0.459,0.609-0.903,1.18-1.334,1.698
	c-0.431,0.521-0.688,1.228-0.778,2.109c-0.092,0.896-0.445,1.854-1.059,2.896c-0.367,0.606-0.553,1.625-0.553,3.029
	c0,0.979-0.123,2.203-0.365,3.681c-0.245,1.472-0.365,2.354-0.365,2.665c0,0.919,0.148,2.129,0.459,3.632
	c0.306,1.502,0.609,2.497,0.918,2.979c0.733,1.229,1.284,2.787,1.652,4.688c0.062,0.369,0.274,0.798,0.645,1.288
	c0.368,0.487,0.658,1.225,0.873,2.205c0.213,0.979,0.657,1.938,1.334,2.895c0.673,0.95,1.562,1.945,2.664,2.987
	c0.307,0.552,0.643,0.966,1.013,1.24c0.366,0.271,0.811,0.562,1.331,0.871c0.521,0.31,2.312,2.084,5.377,5.331
	c1.104,1.165,1.9,1.794,2.391,1.886c0.486,0.092,1.809,0.9,3.949,2.435c0.98,0.675,2.146,1.164,3.494,1.478
	c0.979,0.121,1.652,0.186,2.021,0.186c0.732-0.062,1.504-0.123,2.299-0.186c0.798-0.062,1.625-0.099,2.479-0.099
	c0.312,0,0.844,0.076,1.609,0.23c0.766,0.147,1.395,0.229,1.883,0.229c0.43,0,1.256-0.338,2.481-1.01
	c0.55-0.31,1.188-0.676,1.932-1.104c0.183,0,0.654,0.093,1.423,0.271c0.768,0.188,1.455,0.275,2.067,0.275
	c0.551,0,1.103-0.096,1.651-0.277c1.283-0.428,2.356-1.133,3.217-2.11c0.854-0.979,1.289-1.961,1.289-2.938
	c0-0.611-0.152-1.071-0.459-1.378C432.396,343.387,432.058,343.323,431.507,343.387 M443.637,329.966
	c-0.061-0.364-0.213-0.673-0.459-0.919c-0.673-0.55-1.102-0.854-1.286-0.919c-0.429,0-0.979,0.799-1.649,2.394
	c-0.244,0.921-0.612,1.598-1.104,2.021c-0.246,0.246-0.429,0.431-0.552,0.552c-0.49,0.613-0.733,1.187-0.733,1.7
	c0,0.521-0.34,1.183-1.013,1.979c-0.674,0.8-1.012,1.934-1.012,3.397c0,0.555,0.062,1.042,0.186,1.474
	c0.123,0.434,0.553,0.646,1.286,0.646h0.553c0.187,0,0.397-0.031,0.646-0.092c0.061,0,0.314-0.076,0.775-0.23
	c0.459-0.146,0.92-0.533,1.379-1.146c0.463-0.61,0.703-1.396,0.733-2.347c0.03-0.944,0.199-1.765,0.507-2.438
	c0.551-1.229,0.895-2.112,1.016-2.664c0.123-0.552,0.338-1.379,0.646-2.48C443.669,330.643,443.699,330.336,443.637,329.966
	 M443.822,296.697c-0.312-1.654-0.396-2.94-0.273-3.859c0-0.185,0.029-0.487,0.09-0.919v-2.298c0-0.306-0.029-1.271-0.092-2.896
	c-0.062-1.624-0.184-2.685-0.367-3.171c-0.429-1.104-0.844-1.744-1.241-1.933c-0.396-0.186-0.776-0.272-1.146-0.272
	c-0.493,0-0.896,0.026-1.196,0.095c-0.37,0.122-0.874,0.411-1.517,0.872c-0.646,0.459-1.117,0.898-1.426,1.332
	c-0.062,0.062-0.397,0.768-1.014,2.108c-0.248,0.555-0.43,0.894-0.553,1.017c-0.553,0.431-1.117,1.146-1.701,2.158
	c-0.582,1.014-0.871,1.913-0.871,2.71c0,0.678,0.094,1.305,0.273,1.888c0.181,0.583,0.367,1.115,0.553,1.604
	c0.062,0.312,0.412,0.771,1.061,1.381c0.645,0.61,1.572,1.475,2.805,2.57c0.367,1.104,0.729,2.207,1.104,3.311
	c0.488,0.679,0.826,1.07,1.018,1.19c0.426,0.37,0.978,0.614,1.646,0.737c0.798,0.246,1.287,0.215,1.475-0.092
	c0.799-1.475,1.228-2.271,1.287-2.396c0.486-1.102,0.676-2.051,0.553-2.85C444.035,297.896,443.883,297.126,443.822,296.697
	 M384.22,338.751c-0.46-0.552-0.843-0.798-1.146-0.734c-0.366,0.062-1.209,0.462-2.527,1.193c-1.316,0.735-2.066,1.104-2.25,1.104
	c-0.492,0-1.396-0.268-2.712-0.782c-1.317-0.521-2.129-1.071-2.438-1.653c-0.309-0.583-0.461-1.133-0.461-1.651
	c0-0.521-0.092-0.899-0.271-1.146c-1.288-1.715-2.069-3.368-2.348-4.962c-0.271-1.594-0.7-2.833-1.284-3.725
	c-0.582-0.893-1.026-1.65-1.332-2.302c-0.312-0.644-0.521-1.237-0.646-1.793c-0.062-0.183-0.582-0.729-1.562-1.647
	c-1.229-1.162-2.18-2.271-2.853-3.312c-0.308-0.485-0.706-0.81-1.191-0.964c-0.49-0.149-0.98-0.291-1.474-0.414
	c-0.61-0.429-0.919-0.854-0.919-1.287c0-0.364,0.214-0.672,0.646-0.919c0.183-0.123,0.536-0.213,1.057-0.271
	c0.521-0.062,0.935-0.188,1.241-0.368c0.183-0.188,0.581-0.58,1.193-1.194c0.307-0.365,0.674-0.642,1.104-0.824
	c0.673-0.488,1.132-0.938,1.378-1.334c0.244-0.396,1.104-1.257,2.573-2.567c1.469-1.316,2.466-2.059,2.986-2.208
	c0.521-0.151,1.057-0.31,1.605-0.459c0.551-0.151,1.01-0.489,1.379-1.015c0.367-0.521,0.734-1.424,1.104-2.712
	c0.364-1.286,0.487-2.108,0.364-2.479c0-0.856,0.031-1.717,0.096-2.574c0-1.407-0.369-2.604-1.104-3.584
	c-0.918-1.287-1.471-2.268-1.652-2.938c-0.188-0.674-0.49-1.257-0.922-1.743c-0.429-0.488-0.946-0.827-1.562-1.017
	c-1.288-0.365-2.88-0.729-4.777-1.103c-1.412-0.49-2.696-1.625-3.858-3.401c-0.311-0.486-0.86-0.945-1.656-1.377
	c-0.796-0.429-1.592-0.644-2.389-0.644c-1.596,0-2.882,0.215-3.86,0.644c-0.98,0.431-1.622,0.646-1.928,0.646
	c-0.557,0-1.062-0.073-1.521-0.229c-0.46-0.149-1.118-0.271-1.976-0.366c-0.857-0.093-1.378-0.169-1.562-0.229
	c-0.798-0.246-1.439-0.414-1.932-0.508c-0.491-0.095-1.012-0.143-1.562-0.143c-0.488,0-1.043,0.096-1.651,0.277
	c-0.613,0.186-1.136,0.271-1.563,0.271c-0.855,0-1.594-0.093-2.206-0.271c-0.061,0-0.397,0.14-1.011,0.415
	c-0.613,0.271-1.134,0.383-1.562,0.316c-0.31,0-0.646-0.062-1.013-0.186c-0.919-0.306-1.625-0.459-2.114-0.459
	c-2.146,0-4.092,0.077-5.837,0.229c-1.746,0.152-2.739,0.197-2.983,0.143c-0.369-0.062-0.812-0.212-1.333-0.458
	s-0.938-0.369-1.241-0.369c-0.552,0.123-1.043,0.232-1.471,0.322c-0.431,0.092-0.981,0.138-1.654,0.138
	c-0.309,0-0.888-0.031-1.746-0.093c-0.492,0-1.165,0.104-2.021,0.317c-0.857,0.221-2.604,0.32-5.237,0.32
	c-0.369,0-0.812,0.23-1.333,0.69c-0.521,0.459-0.721,0.935-0.598,1.423c0.12,0.858,0.382,1.688,0.777,2.479
	c0.398,0.801,0.874,1.229,1.427,1.284c0.734-0.062,1.473-0.146,2.205-0.271c0.367,0,0.92,0.092,1.653,0.271
	c0.734,0.188,1.454,0.338,2.16,0.46c0.706,0.123,1.303,0.435,1.793,0.918c0.306,0.312,0.55,0.704,0.735,1.195
	c0.121,0.246,0.364,0.506,0.733,0.781c0.367,0.271,0.673,0.688,0.919,1.238c0.488,0.979,0.856,1.962,1.104,2.938
	c0.429,0.675,0.751,1.333,0.966,1.979c0.213,0.645,0.322,1.696,0.322,3.172c0,1.227-0.123,2.571-0.369,4.043
	c-0.246,1.471-0.367,2.42-0.367,2.848c0,0.558,0.182,1.564,0.551,3.034c0.612,2.451,0.92,3.979,0.92,4.595
	c-0.124,0.734-0.185,1.164-0.185,1.287c0,0.369,0.061,0.979,0.185,1.838c0,0.246-0.062,0.979-0.185,2.205
	c-0.31,2.575-0.46,3.923-0.46,4.044l-0.275,5.791c0.062,0.733,0.107,1.577,0.14,2.526c0.029,0.949,0.048,2.037,0.048,3.263
	c0,1.594-0.093,2.667-0.277,3.217c-0.062,0.246-0.599,0.688-1.607,1.333c-1.013,0.646-1.977,1.578-2.896,2.809
	c-0.309,0.369-0.829,0.724-1.562,1.06c-0.733,0.337-1.408,0.505-2.021,0.505c-0.613-0.123-1.196-0.244-1.746-0.367
	c-0.184-0.062-0.398,0.03-0.644,0.275c-0.555,0.43-0.826,0.921-0.826,1.47c0,0.734,0.549,1.477,1.651,2.206
	c0.062,0.062,0.308,0.338,0.736,0.826c0.244,0.308,0.611,0.538,1.103,0.688c0.488,0.149,1.024,0.354,1.606,0.602
	c0.583,0.243,1.026,0.273,1.334,0.09c0.734-0.729,1.592-1.104,2.572-1.104c0.124,0,0.645,0.078,1.562,0.229
	c0.919,0.153,1.652,0.229,2.204,0.229c1.594,0,3.171-0.105,4.733-0.32c1.562-0.214,3.141-0.476,4.731-0.782
	c0.61,0.062,1.775,0.339,3.492,0.827c0.674,0.188,1.41,0.275,2.205,0.275c0.735,0,1.472-0.045,2.206-0.143
	c0.734-0.093,1.424-0.169,2.068-0.229c0.644-0.062,1.165-0.274,1.562-0.646c0.398-0.362,0.6-0.854,0.6-1.472
	c0-0.55-0.218-1.039-0.646-1.469c-0.429-0.433-1.07-0.736-1.929-0.922c-1.655-0.488-2.697-1.039-3.126-1.653
	c-0.429-0.366-0.872-0.78-1.331-1.24c-0.46-0.459-0.799-1.103-1.012-1.931c-0.217-0.826-0.322-1.547-0.322-2.161
	c0.062-0.487,0.123-0.979,0.185-1.468c0.062-0.491,0.094-1.104,0.094-1.838c0-0.188-0.03-0.556-0.094-1.104
	c-0.062-0.551-0.093-1.067-0.093-1.562c-0.061-0.366-0.215-1.071-0.459-2.113c-0.246-1.043-0.367-1.899-0.367-2.572
	c0-0.553,0.14-1.21,0.412-1.979c0.275-0.771,0.414-1.642,0.414-2.617c0-0.43-0.03-1.165-0.092-2.208
	c0-0.309,0.076-0.768,0.229-1.378c0.151-0.611,0.229-1.256,0.229-1.933c0-1.405,0.459-2.637,1.378-3.679
	c0.306-0.364,0.429-0.796,0.367-1.286c0-0.242-0.199-0.73-0.599-1.471c-0.396-0.731-0.656-1.349-0.779-1.839
	c-0.311-1.229-0.46-1.935-0.46-2.114c0.062-0.185,0.123-0.396,0.185-0.644c0.062-0.245,0.092-0.582,0.092-1.015
	c0-0.123-0.028-0.396-0.092-0.825c-0.062-0.364-0.123-0.854-0.185-1.474c-0.062-0.606-0.244-1.16-0.552-1.648
	c-0.122-0.246-0.338-0.582-0.645-1.013c-0.369-0.8-0.552-1.438-0.552-1.935c0.062-0.367,0.15-0.812,0.273-1.331
	c0.122-0.521,0.187-1.304,0.187-2.347c0-1.161,0.183-1.988,0.552-2.48c0.673-0.673,1.349-1.377,2.023-2.109
	c0.305-0.433,0.656-0.892,1.056-1.379c0.396-0.486,0.749-0.854,1.057-1.104c0.857-0.673,1.81-1.012,2.852-1.012
	c0.609,0,1.27,0.106,1.976,0.321c0.703,0.214,1.331,0.487,1.884,0.824c0.554,0.34,1.287,0.535,2.206,0.6
	c0.92,0.062,1.531,0.188,1.839,0.367c1.104,0.733,1.976,1.213,2.617,1.427c0.646,0.214,1.21,0.383,1.701,0.506
	c0.062,0.062,0.611,0.581,1.653,1.562c0.306,0.312,0.811,0.646,1.516,1.014c0.706,0.37,1.317,1.165,1.838,2.393
	c0.521,1.229,0.782,2.513,0.782,3.858c0,0.731-0.123,1.841-0.367,3.31c-0.246,1.473-0.429,2.271-0.552,2.392
	c-0.246,0.244-0.49,0.487-0.733,0.731c-0.309,0.312-0.489,0.612-0.553,0.92c-0.185,0.312-0.415,0.736-0.688,1.289
	c-0.275,0.552-0.506,0.888-0.689,1.009l-2.205,1.838c-0.185,0.246-0.396,0.37-0.644,0.37c-0.612-0.124-1.135-0.245-1.562-0.366
	c-0.43-0.123-1.011-0.187-1.745-0.187c-0.552,0-1.07,0.027-1.562,0.093c-0.49,0.062-1.241,0.264-2.252,0.6
	c-1.013,0.336-1.746,0.688-2.205,1.06c-0.46,0.37-0.659,0.733-0.599,1.104c0.123,0.434,0.307,0.87,0.553,1.331
	c0.245,0.459,0.519,0.846,0.827,1.146c0.673,0.553,1.576,0.919,2.712,1.104c1.133,0.188,1.82,0.365,2.065,0.555
	c0.488,0.244,1.024,0.479,1.606,0.688c0.583,0.214,0.95,0.751,1.104,1.607c0.152,0.854,0.872,2.055,2.16,3.584
	c0.43,0.553,0.646,1.379,0.646,2.479c0,1.84,0.183,3.342,0.55,4.506c0.673,2.085,1.012,3.585,1.012,4.504
	c0,0.554-0.153,1.501-0.46,2.854c-0.061,0.244-0.092,0.646-0.092,1.189c0.305,1.288,0.609,2.545,0.919,3.771
	c0.184,1.407,0.706,2.541,1.562,3.396c0.674,0.611,1.35,1.229,2.022,1.84c0.06,0.123,0.58,0.341,1.562,0.646
	c0.98,0.312,1.7,0.614,2.159,0.919c0.46,0.312,1.104,0.646,1.934,1.018c0.824,0.363,1.423,0.576,1.791,0.644
	c0.061,0,0.581-0.142,1.562-0.412c0.98-0.275,1.746-0.414,2.297-0.414c0.31,0,0.858-0.17,1.654-0.506s1.438-0.506,1.93-0.506
	c1.777-0.188,3.002-0.734,3.68-1.654c0.919-1.225,1.808-1.988,2.663-2.297c1.53-0.487,2.3-1.715,2.3-3.678
	C384.912,339.978,384.679,339.305,384.22,338.751 M261.348,332.369c-0.088,0.521-0.262,1.138-0.525,1.838
	c-0.176,0.264-0.262,0.613-0.262,1.05c0,0.354-0.177,0.702-0.526,1.053c-0.439,0.268-0.964,0.833-1.575,1.707
	c-0.614,0.876-1.007,1.355-1.182,1.441c-0.439,0.354-1.313,0.526-2.626,0.526c-0.787,0-2.1-0.087-3.939-0.27
	c-1.838-0.175-3.196-0.264-4.07-0.264c-0.964,0-1.817,0.46-2.56,1.379c-0.745,0.919-1.424,1.379-2.035,1.379
	c-0.702,0-1.379-0.218-2.035-0.654c-0.656-0.438-1.424-1.007-2.298-1.706c-0.701-0.352-1.795-0.521-3.282-0.521h-2.626
	c-0.701,0-1.401-0.396-2.101-1.185c-0.701-0.784-1.62-1.396-2.757-1.842c-1.926-0.692-3.02-1.396-3.282-2.101
	c-0.263-0.7-0.394-1.576-0.394-2.626c0-0.874,0.043-2.057,0.131-3.545c0.086-1.487,0.132-2.318,0.132-2.495
	c0-1.312,0.699-2.757,2.1-4.332c1.399-1.576,2.647-2.406,3.742-2.495c1.094-0.086,2.056-0.46,2.889-1.113
	c0.831-0.652,1.684-0.896,2.56-0.725c1.487,0.264,2.538,0.396,3.151,0.396c0.611,0,1.313-0.238,2.101-0.728
	c0.787-0.479,1.881-0.723,3.282-0.723c0.437,0,1.071-0.064,1.904-0.196c0.831-0.132,1.553-0.194,2.166-0.194h1.444
	c0.526,0,1.094,0.062,1.707,0.194c0.612,0.132,1.182,0.196,1.707,0.196c0.611,0.089,1.137,0.263,1.576,0.521
	c1.924,0.969,3.522,2.062,4.792,3.28c1.268,1.229,1.904,2.363,1.904,3.414c0,0.265,0.151,0.744,0.459,1.444
	c0.306,0.698,0.46,2.058,0.46,4.063C261.483,330.576,261.437,331.843,261.348,332.369 M247.694,303.353
	c-1.051,0.609-2.101,1.229-3.151,1.841c-0.351,0.089-0.833,0.351-1.445,0.784c-0.262,0.093-0.656,0.136-1.181,0.136
	c-1.139,0-2.146,0.131-3.02,0.394l-5.12-0.653c-0.788-0.087-1.359-0.31-1.707-0.653c-0.088-0.086-0.308-0.396-0.657-0.918
	c-0.351-0.438-0.525-0.92-0.525-1.445c0-0.698,0.263-1.485,0.788-2.361c0.174-0.263,0.437-0.652,0.788-1.183
	c0.699-0.962,1.05-2.012,1.05-3.15c0-1.051,0.217-2.056,0.656-3.02c0.087-0.175,0.132-0.612,0.132-1.312
	c0-0.521,0.086-0.963,0.262-1.312c0.175-0.353,0.7-0.962,1.576-1.838c0.437-0.438,0.808-1.159,1.116-2.167
	c0.305-1.005,1.028-1.99,2.166-2.954c0.788-0.265,1.444-0.396,1.97-0.396c0.874,0,1.727,0.46,2.56,1.382
	c0.831,0.919,1.378,1.47,1.641,1.644c0.525,0.352,0.831,1.03,0.919,2.035c0.086,1.007,0.328,1.812,0.722,2.429
	c0.394,0.617,0.854,1.312,1.379,2.104c0.262,0.354,0.394,1.312,0.394,2.892v3.938C249.007,301.383,248.568,302.652,247.694,303.353
	 M309.008,341.953c0-0.874-0.263-1.576-0.788-2.104c-0.876-0.782-1.398-1.227-1.575-1.312c-0.177-0.086-0.744-0.131-1.707-0.131
	c-1.752-0.174-3.371-0.354-4.855-0.525c-1.489-0.174-5.034-0.263-10.635-0.263c-0.613,0-1.095-0.217-1.444-0.656
	c-0.176-0.175-0.439-0.349-0.788-0.521c-1.838-0.788-2.888-2.104-3.151-3.939c-0.262-1.838-0.613-2.975-1.05-3.414
	c-1.139-1.136-1.707-2.012-1.707-2.626c0-0.521-0.045-0.831-0.131-0.919c-0.614-1.05-1.073-2.429-1.379-4.136
	c-0.308-1.706-0.788-2.822-1.444-3.354c-0.657-0.521-1.03-0.92-1.116-1.183c-0.088-0.611-0.22-1.094-0.394-1.442
	c-0.263-1.839-0.525-3.679-0.788-5.517c-0.351-1.312-0.898-2.472-1.641-3.479c-0.745-1.009-1.247-2.302-1.51-3.875
	c-1.05-1.396-1.664-2.8-1.838-4.198c-0.176-1.399-0.548-2.449-1.116-3.151c-0.57-0.695-0.964-1.706-1.182-3.019
	c-0.219-1.313-1.073-3.369-2.56-6.172c-0.351-0.699-0.525-1.661-0.525-2.895c0-0.437-0.131-1.05-0.394-1.838
	c-0.262-0.788-0.394-1.969-0.394-3.545c0-0.962,0.043-1.881,0.132-2.757c0.086-0.874,0.131-1.354,0.131-1.444
	c0-0.263-0.131-0.741-0.394-1.439c-0.702-1.66-1.247-3.438-1.641-5.316c-0.394-1.88-1.293-3.303-2.692-4.269
	c-1.838-1.312-2.954-3.04-3.348-5.188c-0.394-2.145-1.161-3.916-2.297-5.312c-0.351-0.524-0.657-1.056-0.919-1.574
	c-1.313-1.75-2.846-2.495-4.596-2.232c-1.575,0.179-3.13,0.354-4.661,0.525c-1.532,0.177-2.779,1.051-3.742,2.626
	c-0.262,0.438-0.832,1.227-1.706,2.359c-0.089,0.523-0.483,0.982-1.182,1.381c-0.702,0.396-1.05,1.247-1.05,2.562
	c0,0.177-0.111,0.636-0.329,1.379c-0.219,0.745-0.328,1.904-0.328,3.479c0,2.625-0.482,4.642-1.444,6.039
	c-0.964,1.396-1.444,3.325-1.444,5.772c-0.263,0.967-0.526,1.929-0.788,2.893c0,0.089-0.702,0.919-2.101,2.493
	c-0.525,0.61-0.919,1.244-1.181,1.9c-0.263,0.657-0.788,1.445-1.576,2.364c-0.788,0.919-1.292,2.342-1.51,4.267
	c-0.219,1.931-0.985,3.636-2.298,5.12c-0.787,0.876-1.269,1.533-1.444,1.973c-0.176,0.61-0.767,1.468-1.772,2.562
	c-1.007,1.095-1.598,2.123-1.773,3.084c0,0.353-0.285,0.896-0.853,1.643c-0.57,0.744-0.942,1.729-1.116,2.955
	c-0.177,1.229-0.548,2.166-1.116,2.821c-0.57,0.657-0.942,1.556-1.116,2.688c-0.177,1.143-0.439,2.062-0.788,2.761
	c-0.176,0.352-0.262,0.786-0.262,1.312c0,0.612-0.263,1.271-0.788,1.972c-0.525,0.699-0.919,1.487-1.182,2.36
	c-0.262,0.877-0.613,1.575-1.05,2.104c-1.227,1.398-2.54,3.147-3.939,5.253c-1.664,2.628-3.479,4.312-5.449,5.057
	c-1.969,0.745-3.13,1.292-3.479,1.643c-1.401,1.145-3.196,1.86-5.383,2.168c-2.189,0.312-3.808,0.727-4.858,1.245
	c-0.439,0.265-1.073,0.656-1.904,1.188c-0.833,0.521-1.333,1.097-1.51,1.705c0,0.266-0.086,0.7-0.262,1.312v1.312
	c0,0.786,0.045,1.354,0.131,1.706c0.088,0.521,0.177,1.312,0.263,2.359c0.262,0.788,0.722,1.312,1.378,1.576
	c0.657,0.265,1.071,0.523,1.248,0.789c0.086,0.176,0.502,0.327,1.247,0.459c0.743,0.131,1.465,0.327,2.166,0.59h0.525
	c0.263,0,0.743-0.062,1.445-0.193c0.699-0.135,1.793-0.193,3.282-0.193c0.788,0,1.619,0.132,2.495,0.396
	c0.873,0.267,1.749,0.311,2.625,0.131c0.7-0.178,1.576-0.264,2.626-0.264c0.7,0.086,1.422,0.176,2.167,0.264
	c0.742,0.088,1.596,0.134,2.56,0.134c0.349,0,0.919-0.046,1.707-0.134c0.787,0,2.1,0.15,3.939,0.461
	c1.838,0.31,2.974,0.459,3.413,0.459c0.788,0,1.859-0.221,3.217-0.652c1.356-0.438,2.603-0.569,3.742-0.396
	c0.611,0.086,1.444,0.131,2.494,0.131c1.137,0,2.253-0.264,3.348-0.787c1.094-0.521,2.079-0.828,2.954-0.919l6.828-0.653
	c0.962-0.698,1.793-1.053,2.494-1.053c0.349,0,0.962,0.267,1.838,0.786c0.874,0.524,1.793,0.788,2.758,0.788
	c0.699,0,1.661-0.043,2.888-0.133c0.7,0,1.094,0.09,1.182,0.265c0.174,0.091,0.611,0.438,1.313,1.056
	c0.262,0.087,0.699,0.132,1.312,0.132c0.699,0.086,1.727-0.109,3.085-0.595c1.356-0.479,2.823-0.725,4.398-0.725
	c1.225,0,2.364-0.219,3.414-0.653c0.349,0,0.831-0.178,1.444-0.523c0.612-0.351,1.399-0.523,2.364-0.523
	c2.449,0,4.418,0.354,5.908,1.055c0.525,0.264,1.136,0.396,1.838,0.396h1.182c0.525-0.087,1.093-0.177,1.706-0.266
	c0.349-0.086,1.094,0.021,2.232,0.326c1.137,0.312,2.144,0.375,3.02,0.194c0.611-0.174,1.313-0.263,2.101-0.263
	c0.525,0.089,1.093,0.177,1.707,0.263c0.611,0.089,1.356,0.133,2.232,0.133c0.962,0,1.772-0.045,2.429-0.133
	c0.656-0.086,1.464-0.131,2.429-0.131c0.873,0,1.618,0.062,2.229,0.195s1.139,0.328,1.575,0.594
	c0.788,0.262,1.619,0.131,2.495-0.396c1.313-0.266,2.562-0.521,3.742-0.786c1.181-0.268,2.252-1.271,3.216-3.021
	C308.748,343.922,309.008,343.003,309.008,341.953"/>
</svg>
