<?xml version="1.0" encoding="utf-8"?>
<!DOCTYPE svg PUBLIC "-//W3C//DTD SVG 1.1//EN" "http://www.w3.org/Graphics/SVG/1.1/DTD/svg11.dtd">
<svg version="1.1" xmlns="http://www.w3.org/2000/svg" xmlns:xlink="http://www.w3.org/1999/xlink" x="0px" y="0px" width="721px" height="220px" viewBox="0 0 721 220" enable-background="new 0 0 721 220" xml:space="preserve">
<path d="M109.26,4.17l56.27,212.56h-44.65l-9.82-44.95H54.48l-9.82,44.95H0L56.27,4.17H109.26z M103.6,136.64L83.06,41.08h-0.6	l-20.54,95.56H103.6z"/>
<path d="M259.59,4.17c17.86,0,31.75,4.52,41.68,13.55c9.92,9.03,14.88,22.77,14.88,41.23c0,14.29-2.88,25.95-8.63,34.98	c-5.76,9.03-14.69,14.84-26.79,17.42v0.6c10.72,1.59,18.55,5.06,23.52,10.42c4.96,5.36,8.04,13.99,9.23,25.9	c0.4,3.97,0.69,8.29,0.89,12.95c0.2,4.67,0.4,9.88,0.59,15.63c0.4,11.31,0.99,19.95,1.79,25.9c1.19,5.95,3.77,10.02,7.74,12.21v1.79	h-46.44c-2.19-2.98-3.57-6.4-4.17-10.27c-0.6-3.87-1-7.89-1.19-12.06l-1.19-40.79c-0.4-8.34-2.48-14.88-6.25-19.65	c-3.77-4.76-10.12-7.15-19.05-7.15h-22.92v89.91h-42.87V4.17H259.59z M241.14,97.05c10.32,0,18.26-2.43,23.82-7.29	c5.55-4.86,8.34-13.05,8.34-24.56c0-19.65-9.93-29.47-29.77-29.47h-20.24v61.33H241.14z"/>
<path d="M431.22,42.12c-3.67-7.04-10.37-10.57-20.09-10.57c-5.36,0-9.78,1.44-13.25,4.32c-3.47,2.88-6.2,7.54-8.19,13.99	c-1.99,6.45-3.38,14.88-4.17,25.3c-0.8,10.42-1.19,23.17-1.19,38.25c0,16.08,0.54,29.08,1.64,39c1.09,9.93,2.78,17.62,5.06,23.07	c2.28,5.46,5.16,9.13,8.63,11.01c3.47,1.89,7.49,2.83,12.06,2.83c3.77,0,7.29-0.64,10.57-1.93c3.27-1.29,6.1-3.87,8.48-7.74	c2.38-3.87,4.27-9.33,5.66-16.37c1.39-7.04,2.08-16.32,2.08-27.83h42.87c0,11.51-0.89,22.43-2.68,32.75	c-1.79,10.32-5.11,19.35-9.97,27.09c-4.87,7.74-11.71,13.8-20.54,18.16c-8.83,4.36-20.29,6.55-34.38,6.55	c-16.07,0-28.88-2.58-38.4-7.74c-9.53-5.16-16.82-12.6-21.88-22.33c-5.06-9.72-8.34-21.33-9.82-34.83	c-1.49-13.49-2.23-28.38-2.23-44.66c0-16.08,0.74-30.91,2.23-44.51c1.49-13.59,4.76-25.25,9.82-34.98	c5.06-9.72,12.35-17.31,21.88-22.77C384.93,2.73,397.73,0,413.8,0c15.28,0,27.34,2.48,36.17,7.44c8.83,4.96,15.43,11.27,19.8,18.9	c4.36,7.64,7.09,15.88,8.19,24.71c1.09,8.83,1.64,17.12,1.64,24.86h-42.87C436.73,60.43,434.89,49.17,431.22,42.12z"/>
<path d="M548.66,4.17v81.27h50.01V4.17h42.87v212.56h-42.87v-94.37h-50.01v94.37h-42.87V4.17H548.66z"/>
<path d="M673.39,4.17h42.87v212.56h-42.87V4.17z"/>
</svg>
